<svg xmlns="http://www.w3.org/2000/svg" xmlns:xlink="http://www.w3.org/1999/xlink" viewBox="0 0 84.78 163.79"><defs><style>.cls-1{fill:#ecedeb;stroke:#000;stroke-miterlimit:10;stroke-width:0.5px;}.cls-2{fill:url(#linear-gradient);}.cls-3{fill:url(#linear-gradient-2);}.cls-4{opacity:0.5;fill:url(#linear-gradient-3);}.cls-5{opacity:0.8;fill:url(#linear-gradient-4);}</style><linearGradient id="linear-gradient" x1="26.72" y1="63.12" x2="64.6" y2="64.9" gradientUnits="userSpaceOnUse"><stop offset="0" stop-color="#4a7c99"/><stop offset="1" stop-color="#27327c"/></linearGradient><linearGradient id="linear-gradient-2" x1="14.22" y1="43.97" x2="71.19" y2="46.65" gradientUnits="userSpaceOnUse"><stop offset="0" stop-color="#27327c"/><stop offset="1" stop-color="#4a7c99"/></linearGradient><linearGradient id="linear-gradient-3" x1="15.02" y1="42.18" x2="61.93" y2="44.38" gradientUnits="userSpaceOnUse"><stop offset="0" stop-color="#27327c"/><stop offset="0.03" stop-color="#2b3a7f"/><stop offset="0.13" stop-color="#365188"/><stop offset="0.24" stop-color="#3e628f"/><stop offset="0.37" stop-color="#446f93"/><stop offset="0.56" stop-color="#477696"/><stop offset="1" stop-color="#487897"/><stop offset="1" stop-color="#4a7c99"/></linearGradient><linearGradient id="linear-gradient-4" x1="30.94" y1="65.25" x2="63.16" y2="66.77" gradientUnits="userSpaceOnUse"><stop offset="0" stop-color="#4a7c99"/><stop offset="0.25" stop-color="#487898"/><stop offset="0.47" stop-color="#436d93"/><stop offset="0.69" stop-color="#3a5b8c"/><stop offset="0.9" stop-color="#2e4182"/><stop offset="1" stop-color="#27327c"/></linearGradient></defs><g id="OBJECTS"><path d="M7.32,101.67a14.42,14.42,0,0,0,1.5.83q.86.41,1.77.75a15.19,15.19,0,0,0,1.75.55,5.89,5.89,0,0,0,1.48.22l.59,0a5.36,5.36,0,0,0,.77-.09,6.37,6.37,0,0,0,.82-.18,3.09,3.09,0,0,0,.75-.3,1.73,1.73,0,0,0,.55-.43.93.93,0,0,0,.23-.6,2.87,2.87,0,0,0-.36-1.34,8.81,8.81,0,0,0-1-1.56,17.77,17.77,0,0,0-1.46-1.64c-.55-.56-1.12-1.09-1.71-1.6s-1.18-1-1.77-1.43S10.1,94,9.6,93.69l2.7-4A33.39,33.39,0,0,1,15.23,92a26.35,26.35,0,0,1,2.68,2.71,20.4,20.4,0,0,1,2.13,3,12.24,12.24,0,0,1,1.3,3.07,5.55,5.55,0,0,1,.16.89c0,.3.05.59.05.86a6,6,0,0,1-2.08,4.64,7.09,7.09,0,0,1-2.35,1.33,9.31,9.31,0,0,1-3,.47h-.49a10.68,10.68,0,0,1-2.15-.22,16.68,16.68,0,0,1-2.18-.58,18.94,18.94,0,0,1-2.08-.86,18.41,18.41,0,0,1-1.88-1Z"/><path d="M29.79,109a9.79,9.79,0,0,1-3.21-.47,6.06,6.06,0,0,1-2.32-1.42,5,5,0,0,1-.93-1.28,5.44,5.44,0,0,1-.47-1.31,6.25,6.25,0,0,1-.17-1.23c0-.38,0-.71,0-1V102q0-.55,0-1.62c0-.7,0-1.53,0-2.48s0-2,0-3.15,0-2.29-.08-3.44-.11-2.24-.2-3.29a27.23,27.23,0,0,0-.36-2.76l4.55-1.38a23.24,23.24,0,0,1,.32,2.37c.08.9.15,1.86.21,2.85s.09,2,.12,3,0,1.94.05,2.8,0,1.5-.08,2.23-.12,1.43-.16,2.13a15.09,15.09,0,0,0,0,2,6.59,6.59,0,0,0,.41,1.91,1.44,1.44,0,0,0,.35.53,1.25,1.25,0,0,0,.48.27,2.21,2.21,0,0,0,.6.1h.86a2.32,2.32,0,0,1,.93.2,2.42,2.42,0,0,1,.76.53,2.53,2.53,0,0,1,.53.76,2.31,2.31,0,0,1,0,1.88,2.58,2.58,0,0,1-.53.77,2.54,2.54,0,0,1-.76.51A2.48,2.48,0,0,1,29.79,109Z"/><path d="M26.62,106.54a2.46,2.46,0,0,1,.18-.94,2.32,2.32,0,0,1,1.28-1.28,2.46,2.46,0,0,1,.94-.18h1.16c.73,0,1.43,0,2.11-.09a6.65,6.65,0,0,0,1.79-.39,3.21,3.21,0,0,0,1.25-.84,2.2,2.2,0,0,0,.51-1.44c0-.22,0-.4,0-.55a2.35,2.35,0,0,0-.09-.53c0-.21-.12-.48-.22-.82s-.23-.82-.4-1.44l4.43-1.25a11.91,11.91,0,0,1,.53,1.93,23.47,23.47,0,0,1,.37,2.63c0,.31.05.62.1,1a4.26,4.26,0,0,0,.25.9,1.86,1.86,0,0,0,.48.67,1.17,1.17,0,0,0,.79.27,2.51,2.51,0,0,1,.95.18,2.35,2.35,0,0,1,.77.51,2.52,2.52,0,0,1,.51.77,2.29,2.29,0,0,1,.19.94,2.34,2.34,0,0,1-.19.95,2.38,2.38,0,0,1-.52.77,2.72,2.72,0,0,1-.77.51,2.39,2.39,0,0,1-.92.18,6.28,6.28,0,0,1-2.5-.45,5.91,5.91,0,0,1-1.79-1.17,6.83,6.83,0,0,1-1.58.77,14.48,14.48,0,0,1-1.89.49,17.2,17.2,0,0,1-2.07.27q-1.07.09-2.1.09H29a2.46,2.46,0,0,1-.94-.18,2.72,2.72,0,0,1-.77-.51,2.35,2.35,0,0,1-.51-.77A2.51,2.51,0,0,1,26.62,106.54Z"/><path d="M52.39,106.38a2.21,2.21,0,0,1,.19-.93,2.72,2.72,0,0,1,.51-.77,2.54,2.54,0,0,1,.76-.51,2.5,2.5,0,0,1,.94-.18h1.05l.64,0,.93,0a7.86,7.86,0,0,1-.8-1.94,7.72,7.72,0,0,1-.28-2.08,8.53,8.53,0,0,1,.15-1.58,8.27,8.27,0,0,1,.46-1.51,7,7,0,0,1,.76-1.37,6.7,6.7,0,0,1,1.08-1.18L58,93.8l2.94-4.33a12.6,12.6,0,0,0,1.56.93c.61.32,1.25.63,1.92.94s1.34.61,2,.9l1.86.81,2.57,1.18c.74.34,1.41.68,2,1a12.58,12.58,0,0,1,1.62,1,9.37,9.37,0,0,1,1.34,1.27A6.79,6.79,0,0,1,77,99.75a8.17,8.17,0,0,1,.35,2.29,6.37,6.37,0,0,1-.88,3.22,7.07,7.07,0,0,1-2.58,2.54,5.08,5.08,0,0,1-1.16.47c-.46.13-1,.24-1.45.33s-1,.15-1.48.19-.91.06-1.28.06-.89,0-1.38-.06-1-.09-1.5-.16-1-.18-1.47-.3a8.75,8.75,0,0,1-1.31-.43,16.4,16.4,0,0,1-1.68.38c-.64.11-1.3.21-2,.28s-1.41.14-2.13.18-1.42.06-2.09.06h-.14a2.32,2.32,0,0,1-.94-.19,2.39,2.39,0,0,1-.76-.52,2.46,2.46,0,0,1-.51-.77A2.26,2.26,0,0,1,52.39,106.38Zm11.06-9.84a1.49,1.49,0,0,0-1,.28,4.3,4.3,0,0,0-1,1A4.72,4.72,0,0,0,60.67,99a2.75,2.75,0,0,0-.21,1.28h0a2,2,0,0,0,.3.81,5.13,5.13,0,0,0,.62.81,4.94,4.94,0,0,0,.76.69,3.82,3.82,0,0,0,.77.43,4.16,4.16,0,0,0,1.13-.28,3,3,0,0,0,1-.63,3.22,3.22,0,0,0,.71-1.1A4.39,4.39,0,0,0,66,99.4a1.92,1.92,0,0,0-.29-1,4.16,4.16,0,0,0-.67-.89,4.39,4.39,0,0,0-.85-.67A2.09,2.09,0,0,0,63.45,96.54ZM70,99.06a6.4,6.4,0,0,1-.15,1.34,10.07,10.07,0,0,1-.42,1.39,13,13,0,0,1-.58,1.33,12,12,0,0,1-.69,1.19h.13c.74,0,1.43,0,2.05-.08a6.5,6.5,0,0,0,1.62-.34,2.57,2.57,0,0,0,1.09-.7,2,2,0,0,0,.48-1.19,1.15,1.15,0,0,0-.31-.8,5.4,5.4,0,0,0-.86-.87,10.84,10.84,0,0,0-1.16-.84c-.43-.28-.83-.52-1.2-.73Z"/><path d="M49.78,94.81H46.4a4.67,4.67,0,0,0-4.67,4.67v4.8A4.67,4.67,0,0,0,46.4,109h3.38a4.67,4.67,0,0,0,4.67-4.67v-4.8A4.67,4.67,0,0,0,49.78,94.81ZM51.31,103a2.19,2.19,0,0,1-2.18,2.19H47.05A2.19,2.19,0,0,1,44.87,103v-2.2a2.19,2.19,0,0,1,2.18-2.19h2.08a2.19,2.19,0,0,1,2.18,2.19Z"/><rect x="26.11" y="111.39" width="9.45" height="3.42"/><rect x="28.88" y="115.11" width="3.91" height="3.42"/><path d="M3.13,130.3a1.49,1.49,0,0,1-.82-.12,2.09,2.09,0,0,1-.75-.51,2.13,2.13,0,0,1-.47-.77A2,2,0,0,1,1,127.84a2.23,2.23,0,0,1,.46-1,2,2,0,0,1,.85-.59l1.82-.59.4,1.32-1.8.64a.6.6,0,0,0-.37.28.54.54,0,0,0-.06.43.68.68,0,0,0,.25.36.59.59,0,0,0,.43.1l1.36-.22.22,1.47-.86.14Zm2.91.79a2.14,2.14,0,0,1-1.16-.33,2.39,2.39,0,0,1-.85-.88,2.44,2.44,0,0,1-.31-1.2v-3.21H5.05v3.21a.9.9,0,0,0,.13.45,1.07,1.07,0,0,0,.36.34,1.06,1.06,0,0,0,.5.12h.2v1.5Z"/><path d="M6.14,129.59h.12a1,1,0,0,0,.46-.11,1,1,0,0,0,.33-.3l.78-1.51a1.9,1.9,0,0,1,.64-.73,1.67,1.67,0,0,1,.86-.29,1.72,1.72,0,0,1,.9.22,1.88,1.88,0,0,1,.81.86,2.59,2.59,0,0,1,.23,1.28,3.11,3.11,0,0,1-.38,1.34,1.52,1.52,0,0,1-.49.55,1.19,1.19,0,0,1-.68.24A1.28,1.28,0,0,1,9,131l-1.64-.84L8,128.87l1.76.89,0,0s0,0,0,0l0,0a2.85,2.85,0,0,0,.25-.66,1.25,1.25,0,0,0,0-.55.66.66,0,0,0-.31-.37.54.54,0,0,0-.35-.07.63.63,0,0,0-.34.16,1.29,1.29,0,0,0-.28.38L8.2,129.8a2.53,2.53,0,0,1-.81.95,2,2,0,0,1-1.13.34H6.14Zm5.92,1.5A1.88,1.88,0,0,1,11,130.8a1.82,1.82,0,0,1-.65-.79,2.81,2.81,0,0,1-.22-1.17h1.13a.86.86,0,0,0,.09.41.57.57,0,0,0,.26.25,1,1,0,0,0,.44.09Z"/><path d="M12,129.59h1.86a1.09,1.09,0,0,0,.57-.11.39.39,0,0,0,.12-.38l-.12-1.3,1.33-.12.12,1.3a2,2,0,0,1-.18,1.1,1.64,1.64,0,0,1-.71.74,2.25,2.25,0,0,1-1.13.27H12Zm1,3.92-.42-.43-.43-.43.43-.44.42-.43.44.43.44.44-.44.43Zm2.12,0-.43-.43-.43-.43.43-.44.43-.43c.09.09.23.24.43.43l.44.44-.44.43Zm1.47-2.42a1.93,1.93,0,0,1-1.42-.51,2.21,2.21,0,0,1-.59-1.48l1.33-.11a1.41,1.41,0,0,0,.09.38.32.32,0,0,0,.19.17,1.3,1.3,0,0,0,.4.05Z"/><path d="M16.41,129.59h.83a1.59,1.59,0,0,0,.59-.09.41.41,0,0,0,.27-.29,1.09,1.09,0,0,0,0-.58l-.42-1.58,1.29-.38.42,1.58a2.53,2.53,0,0,1,0,1.47,1.86,1.86,0,0,1-.77,1,2.43,2.43,0,0,1-1.35.36h-.83Zm1.26,4a6.56,6.56,0,0,0-.48-.49l-.49-.48.49-.49c.23-.22.39-.39.48-.49l.49.49.5.49-.5.48Z"/><path d="M26.06,133.58a3.18,3.18,0,0,1-2.47-.27,2.81,2.81,0,0,1-1.26-2,5.9,5.9,0,0,1,.34-3.05l1.26.49a4.86,4.86,0,0,0-.33,2.05,1.44,1.44,0,0,0,.65,1.16,2,2,0,0,0,1.52.12l.11,0,.11,0a5.62,5.62,0,0,0,1-.28.91.91,0,0,0,.43-.3.77.77,0,0,0,.08-.5q0-.12-.45-.3a8.64,8.64,0,0,0-1-.31l.4-1.43,0,0a10,10,0,0,1,1.47.86,1.72,1.72,0,0,1,.87,1.14,2.2,2.2,0,0,1-.19,1.15,2.1,2.1,0,0,1-.78.82,5,5,0,0,1-1.44.56l-.15,0Zm3.24-2.49c-.34,0-.62,0-.84,0a4.42,4.42,0,0,1-.72-.15l-1.11-.34-.3-.09-.32-.1.4-1.43.07,0,.05,0c.9.25,1.52.41,1.85.49a3.94,3.94,0,0,0,.92.12Z"/><path d="M29.2,129.59h.11a1,1,0,0,0,.47-.11,1,1,0,0,0,.33-.3l.78-1.51a1.9,1.9,0,0,1,.64-.73,1.67,1.67,0,0,1,.85-.29,1.75,1.75,0,0,1,.91.22,1.86,1.86,0,0,1,.8.86,2.49,2.49,0,0,1,.24,1.28,3.11,3.11,0,0,1-.38,1.34,1.52,1.52,0,0,1-.49.55,1.19,1.19,0,0,1-.68.24,1.28,1.28,0,0,1-.73-.16l-1.64-.84.62-1.27,1.77.89,0,0s0,0,0,0l0,0a2.41,2.41,0,0,0,.24-.66,1,1,0,0,0,0-.55.64.64,0,0,0-.3-.37.54.54,0,0,0-.35-.07.63.63,0,0,0-.34.16,1.29,1.29,0,0,0-.28.38l-.59,1.16a2.62,2.62,0,0,1-.81.95,2,2,0,0,1-1.14.34H29.2Zm5.92,1.5a1.88,1.88,0,0,1-1-.29,1.75,1.75,0,0,1-.65-.79,2.81,2.81,0,0,1-.22-1.17h1.13a.86.86,0,0,0,.09.41.53.53,0,0,0,.26.25,1,1,0,0,0,.44.09Z"/><path d="M35,129.59h.5a.79.79,0,0,0,.55-.14.56.56,0,0,0,.13-.41v-1.31h1.25V129a2.19,2.19,0,0,1-.22,1,1.8,1.8,0,0,1-.65.77,1.84,1.84,0,0,1-1.06.31H35Zm3.06,1.5a1.72,1.72,0,0,1-1-.31,2,2,0,0,1-.66-.78,2.24,2.24,0,0,1-.22-1h1.25a.52.52,0,0,0,.15.4.66.66,0,0,0,.48.15h.09a.74.74,0,0,0,.49-.16.62.62,0,0,0,.11-.39v-1.31H40V129a2.32,2.32,0,0,1-.21,1,1.82,1.82,0,0,1-.66.77A1.85,1.85,0,0,1,38.07,131.09Zm2.57,0a1.82,1.82,0,0,1-1-.29A1.88,1.88,0,0,1,39,130a2.31,2.31,0,0,1-.22-1H40a.5.5,0,0,0,.14.41.72.72,0,0,0,.49.14,1,1,0,0,0,.46-.09.4.4,0,0,0,.22-.29,1.38,1.38,0,0,0,0-.58l-.42-1.58,1.28-.38.42,1.58a2.6,2.6,0,0,1,0,1.46,1.81,1.81,0,0,1-.71,1A2.08,2.08,0,0,1,40.64,131.09Z"/><path d="M42.33,132.34l.19-.06.2-.05a7.89,7.89,0,0,0,1-.34.94.94,0,0,0,.47-.39,1.08,1.08,0,0,0,.08-.65l-.42-3,1.32-.2.42,3a2.78,2.78,0,0,1-.14,1.43,2,2,0,0,1-.82.91,6.15,6.15,0,0,1-1.54.64l-.23.07-.23.07Z"/><path d="M52.08,133.58a3.24,3.24,0,0,1-2.48-.28,2.8,2.8,0,0,1-1.25-2,5.78,5.78,0,0,1,.33-3.05l1.27.49a4.73,4.73,0,0,0-.34,2.05,1.44,1.44,0,0,0,.65,1.16,2,2,0,0,0,1.52.12l.81-.2c.24-.06.45-.13.62-.19a1.11,1.11,0,0,0,.34-.21l0,0-.06,0L53,131.3l-.64-.19H52.3a3.35,3.35,0,0,1-.95-.51,1.29,1.29,0,0,1-.43-.75,2.53,2.53,0,0,1,.12-1.17,3.36,3.36,0,0,1,.66-1.22,2.48,2.48,0,0,1,1.07-.77,2.22,2.22,0,0,1,1.35,0l.69.19-.35,1.45-.68-.19a.91.91,0,0,0-.77.06,1.23,1.23,0,0,0-.48.45,1.67,1.67,0,0,0-.21.47.67.67,0,0,0,0,.33.41.41,0,0,0,.18.19,3.37,3.37,0,0,0,.49.18h0l.15,0,.15,0a7.07,7.07,0,0,1,.89.31,1.52,1.52,0,0,1,.47.35,1.28,1.28,0,0,1,.25.6,1.41,1.41,0,0,1-.2,1.06,2.49,2.49,0,0,1-1,.83A6.48,6.48,0,0,1,52.08,133.58Z"/><path d="M55.51,132.34l.19-.06.2-.05a7.89,7.89,0,0,0,1-.34.94.94,0,0,0,.47-.39,1,1,0,0,0,.08-.65l-.42-3,1.32-.2.42,3a2.78,2.78,0,0,1-.14,1.43,2,2,0,0,1-.82.91,6.15,6.15,0,0,1-1.54.64l-.23.07-.23.07Z"/><path d="M59.36,123.84l1.34-.07.27,7.29-1.33.07Z"/><path d="M64.2,131.09a2.3,2.3,0,0,1-1-.2,1.67,1.67,0,0,1-.66-.53,1.44,1.44,0,0,1-.26-.74v-.31c0-.12,0-.24,0-.38h1.23v.23c0,.07,0,.14,0,.21h0a.17.17,0,0,0,.12.16.78.78,0,0,0,.3.05h1.08c.28,0,.46-.05.53-.16a.43.43,0,0,0,0-.42l1.3-.35a2.1,2.1,0,0,1,0,1.22,1.7,1.7,0,0,1-.71.88,2.37,2.37,0,0,1-1.3.33Zm1.27-6-.48-.49-.49-.48c.1-.11.27-.27.49-.49l.48-.49.49.49.49.49-.49.48C65.74,124.79,65.57,125,65.47,125.06Zm2.06,6a1.54,1.54,0,0,1-.9-.26,1.79,1.79,0,0,1-.6-.7,5.42,5.42,0,0,1-.41-1.09v0l-.79-3.1,1.3-.35.79,3.1v0a4,4,0,0,0,.16.55.51.51,0,0,0,.17.26.39.39,0,0,0,.28.09H68v1.5Z"/><path d="M67.71,129.59H70l.17,0,.12-.06a.36.36,0,0,0,.11-.14.4.4,0,0,0,0-.19.37.37,0,0,0-.09-.2L68,125.68l.3-1.13,3.82-1.4.47,1.39-3.2,1.18.1-.38,1.85,2.74a2.54,2.54,0,0,1,.38.87,2,2,0,0,1,0,.83,1.43,1.43,0,0,1-.31.67,1.41,1.41,0,0,1-.6.47,2.11,2.11,0,0,1-.87.17H67.71Zm0,0h0v1.5h0Zm.58-6.86,2.57-.93.33.92-2.58.93Z"/><path d="M71.81,132.34l.2-.06.19-.05a8.72,8.72,0,0,0,1-.34,1,1,0,0,0,.47-.39,1.09,1.09,0,0,0,.07-.65l-.42-3,1.32-.2.42,3A2.68,2.68,0,0,1,75,132.1a2,2,0,0,1-.82.91,6.15,6.15,0,0,1-1.54.64l-.22.07-.23.07Z"/><path d="M77.82,131.09a2.57,2.57,0,0,1-1.21-.24,1.42,1.42,0,0,1-.66-.76,4.36,4.36,0,0,1-.26-1.4l-.19-4.85,1.33-.07.19,4.92s0,.05,0,.07v.07a1.48,1.48,0,0,0,.06.51.29.29,0,0,0,.2.2,2.12,2.12,0,0,0,.53.05h.1v1.5Z"/><path d="M77.82,129.59h2.31l.17,0,.12-.06a.36.36,0,0,0,.11-.14.4.4,0,0,0,0-.19.37.37,0,0,0-.09-.2l-2.32-3.3.3-1.13,3.82-1.4.47,1.39-3.2,1.18.1-.38,1.85,2.74a2.54,2.54,0,0,1,.38.87,2,2,0,0,1,0,.83,1.43,1.43,0,0,1-.31.67,1.41,1.41,0,0,1-.6.47,2.11,2.11,0,0,1-.87.17H77.82Zm0,0h0v1.5h0Z"/><path d="M30.19,145a2.22,2.22,0,0,1-.92-.18,1.46,1.46,0,0,1-.63-.51,1.26,1.26,0,0,1-.24-.7c0-.08,0-.17,0-.29V143h1.16v.22c0,.07,0,.13,0,.19h0a.18.18,0,0,0,.11.16.75.75,0,0,0,.29,0h1.14c.26,0,.43,0,.5-.14a.41.41,0,0,0,0-.41,8,8,0,0,0-.61-1.22c-.29-.49-.6-1-.93-1.45l1-.84a18,18,0,0,1,1.09,1.69,6,6,0,0,1,.64,1.49,2,2,0,0,1,0,1.16,1.52,1.52,0,0,1-.67.83,2.2,2.2,0,0,1-1.23.31Z"/><path d="M36.22,145a2.51,2.51,0,0,1-1.15-.22,1.34,1.34,0,0,1-.62-.72,4.28,4.28,0,0,1-.24-1.33l-.18-4.6,1.26-.06.18,4.66v.07a.13.13,0,0,1,0,.06,1.71,1.71,0,0,0,.05.49.28.28,0,0,0,.19.19,2,2,0,0,0,.5,0h.1V145Z"/><path d="M38.22,143.6H40a.94.94,0,0,0,.53-.1.35.35,0,0,0,.12-.36l-.11-1.23,1.26-.12.11,1.23a1.89,1.89,0,0,1-.17,1,1.56,1.56,0,0,1-.67.7A2.14,2.14,0,0,1,40,145H38.22Zm.91,3.69c-.09-.08-.22-.22-.41-.41l-.4-.41c.09-.08.22-.22.4-.41l.41-.41.41.41.42.41-.42.41C39.35,147.07,39.22,147.21,39.13,147.29Zm1,1.3-.33-.34c-.15-.15-.27-.26-.34-.34l.34-.33.33-.34.33.34.34.33c-.07.08-.19.19-.34.34Zm1-1.3c-.09-.08-.22-.22-.41-.41l-.4-.41c.09-.08.22-.22.4-.41l.41-.41.41.41.42.41-.42.41C41.34,147.07,41.21,147.21,41.12,147.29ZM42.54,145a1.86,1.86,0,0,1-1.35-.48,2.1,2.1,0,0,1-.56-1.4l1.26-.11a1.64,1.64,0,0,0,.08.36.33.33,0,0,0,.18.17,1.33,1.33,0,0,0,.39,0Z"/><path d="M44.44,143.6h.11a.89.89,0,0,0,.44-.1.86.86,0,0,0,.31-.29l.74-1.43a1.88,1.88,0,0,1,.6-.68,1.64,1.64,0,0,1,.82-.28,1.68,1.68,0,0,1,.86.21,1.78,1.78,0,0,1,.76.82,2.39,2.39,0,0,1,.22,1.2,2.89,2.89,0,0,1-.36,1.27,1.48,1.48,0,0,1-.46.53,1.25,1.25,0,0,1-1.34.07l-1.55-.8.59-1.2,1.67.84,0,0h0s0,0,0,0a2.35,2.35,0,0,0,.23-.62,1,1,0,0,0,0-.52.63.63,0,0,0-.29-.35.57.57,0,0,0-.33-.07.72.72,0,0,0-.32.15,1.3,1.3,0,0,0-.27.36l-.56,1.1a2.36,2.36,0,0,1-.77.9,1.78,1.78,0,0,1-1.07.32h-.11ZM50.05,145a1.74,1.74,0,0,1-1-.27,1.67,1.67,0,0,1-.62-.74,2.76,2.76,0,0,1-.21-1.12H49.3a.87.87,0,0,0,.08.39.53.53,0,0,0,.25.24.88.88,0,0,0,.42.08Z"/><path d="M52.45,144.1a1.92,1.92,0,0,1-.78-.66,2.05,2.05,0,0,1-.34-1,2,2,0,0,1,.2-1,2,2,0,0,1,.64-.78,2,2,0,0,1,.92-.35,1.88,1.88,0,0,1,1,.18,1.72,1.72,0,0,1,.77.67,2.11,2.11,0,0,1,.35,1,2,2,0,0,1-.18,1,2.75,2.75,0,0,1-1.32,1.33,4.46,4.46,0,0,1-2.13.49H51V143.6h.61a5.07,5.07,0,0,0,1.22-.11,1.39,1.39,0,0,0,1.09-.87.64.64,0,0,0,0-.47.61.61,0,0,0-.31-.36.72.72,0,0,0-.34-.09.65.65,0,0,0-.31.08.59.59,0,0,0,.08,1.06l2.12,1a.57.57,0,0,0,.46,0,.55.55,0,0,0,.35-.3.56.56,0,0,0,0-.44.64.64,0,0,0-.33-.36L52.07,141l.59-1.26,3.53,1.86a1.86,1.86,0,0,1,.72.67,2,2,0,0,1,.32.94,1.79,1.79,0,0,1-.17,1,1.82,1.82,0,0,1-.63.76,1.79,1.79,0,0,1-1.81.17Z"/><path d="M60.46,143.6h1.6V145h-1.6Zm.91,0h3.18a.86.86,0,0,0,.39-.09.82.82,0,0,0,.3-.25.56.56,0,0,0,.11-.31.76.76,0,0,0-.8-.8.8.8,0,0,0-.43.13,2.26,2.26,0,0,0-.42.41c-.16.18-.37.47-.64.85l-.89,1.22-1-.9.81-1.12c.37-.51.67-.9.91-1.17a3,3,0,0,1,.74-.62,1.89,1.89,0,0,1,.89-.22,1.92,1.92,0,0,1,1,.3,2.11,2.11,0,0,1,.74.8,2.24,2.24,0,0,1,.28,1.12,2,2,0,0,1-.29,1,2.13,2.13,0,0,1-.76.76,1.94,1.94,0,0,1-1,.28H61.37Zm.1-5.45,1.27-.06.18,5-1.24.61ZM66.9,145a2,2,0,0,1-.84-.18,2.22,2.22,0,0,1-.68-.44l.85-1a.78.78,0,0,0,.28.17,1,1,0,0,0,.39.07H67V145Z"/><path d="M68.47,143.6h.16c.55,0,1,0,1.47,0a6.43,6.43,0,0,0,1.24-.21l2.34-.56,0,.33-2.05-1h0a1.06,1.06,0,0,0-.49-.11,1.12,1.12,0,0,0-.46.14,1,1,0,0,0-.35.35l-.17.32L69,142.08l.2-.36a2.38,2.38,0,0,1,.81-.88,2,2,0,0,1,1.07-.31,2.24,2.24,0,0,1,1.13.31l2.53,1.46-.18,1.64-2.91.78a7.4,7.4,0,0,1-1.42.25c-.49,0-1,.05-1.59.05h-.17Zm2.67-3.7-.46-.46-.46-.46.46-.46.46-.47.46.47.47.46-.47.46Z"/><path d="M75.67,146.19l.18-.05.19-.06a7.25,7.25,0,0,0,1-.32.86.86,0,0,0,.44-.36,1.07,1.07,0,0,0,.08-.62l-.4-2.87,1.25-.19.4,2.89a2.59,2.59,0,0,1-.14,1.35,1.9,1.9,0,0,1-.77.87,6.25,6.25,0,0,1-1.46.6l-.22.07-.21.06Zm3.4-1.19a1.42,1.42,0,0,1-.89-.25,1.66,1.66,0,0,1-.55-.79,7.71,7.71,0,0,1-.35-1.55l0-.17,1.19-.19v.06c.06.46.11.79.16,1a.9.9,0,0,0,.17.39.4.4,0,0,0,.29.09h.06V145Z"/><path d="M79.84,143.58h.79a1.42,1.42,0,0,0,.55-.08.39.39,0,0,0,.26-.28,1.07,1.07,0,0,0,0-.55l-.4-1.49,1.22-.36.4,1.49a2.47,2.47,0,0,1,0,1.4,1.75,1.75,0,0,1-.73.95,2.31,2.31,0,0,1-1.28.34h-.79ZM81,147.4l-.46-.46-.46-.46.46-.46.46-.47.46.47.47.46-.47.46Z"/><path d="M4.55,147.38a3,3,0,0,1-2.35-.25A2.67,2.67,0,0,1,1,145.27a5.72,5.72,0,0,1,.32-2.9l1.2.47a4.68,4.68,0,0,0-.32,1.94,1.39,1.39,0,0,0,.62,1.11,1.93,1.93,0,0,0,1.44.1l.14,0,.13,0a4.4,4.4,0,0,0,.89-.27.74.74,0,0,0,.4-.35,1.18,1.18,0,0,0,.06-.63c0-.23-.17-1.15-.41-2.75l1.25-.2c.23,1.53.36,2.45.4,2.75A2.71,2.71,0,0,1,7,145.85a1.82,1.82,0,0,1-.72.88,4.8,4.8,0,0,1-1.37.56l-.19,0Zm-.64-4.77c-.09-.1-.25-.25-.46-.46L3,141.69l.46-.46.46-.47.46.47.47.46-.47.46Z"/><path d="M10,145a2.51,2.51,0,0,1-1.15-.22,1.34,1.34,0,0,1-.62-.72,4.28,4.28,0,0,1-.24-1.33l-.18-4.6L9,138.09l.18,4.66v.07a.13.13,0,0,1,0,.06,1.71,1.71,0,0,0,0,.49.28.28,0,0,0,.19.19,2,2,0,0,0,.5,0h.1V145Z"/><path d="M14,143.6h1.76a.94.94,0,0,0,.53-.1.35.35,0,0,0,.12-.36l-.11-1.23,1.26-.12.11,1.23a1.89,1.89,0,0,1-.17,1,1.56,1.56,0,0,1-.67.7,2.14,2.14,0,0,1-1.07.25H14Zm.92,3.72c-.09-.08-.22-.22-.41-.41l-.4-.41c.09-.08.22-.22.4-.41l.41-.41.41.41.42.41-.42.41C15.09,147.1,15,147.24,14.87,147.32Zm2,0c-.09-.08-.22-.22-.41-.41l-.4-.41c.09-.08.22-.22.4-.41l.41-.41.41.41.42.41-.42.41C17.09,147.1,17,147.24,16.87,147.32Zm1.4-2.3a1.86,1.86,0,0,1-1.35-.48,2.1,2.1,0,0,1-.56-1.4l1.26-.11a1.64,1.64,0,0,0,.08.36.33.33,0,0,0,.18.17,1.33,1.33,0,0,0,.39,0Z"/><path d="M20.17,143.6h2.19a.41.41,0,0,0,.16,0,.33.33,0,0,0,.12-.05.28.28,0,0,0,.1-.14.35.35,0,0,0,0-.18.39.39,0,0,0-.08-.19l-2.2-3.12.28-1.07,3.62-1.33.45,1.32-3,1.12.1-.36,1.75,2.59A2.5,2.5,0,0,1,24,143a1.73,1.73,0,0,1,0,.78,1.51,1.51,0,0,1-.86,1.09,2.09,2.09,0,0,1-.83.15H20.17Zm0,0h0V145h0Z"/><rect x="10.05" y="143.6" width="3.9" height="1.42"/><rect x="18.27" y="143.6" width="1.93" height="1.42"/><rect x="50.05" y="143.6" width="0.9" height="1.42"/><polygon points="44.44 143.6 42.54 143.6 42.54 145.02 44.55 145.02 44.44 143.6"/><rect x="36.32" y="143.6" width="1.9" height="1.42"/><polygon points="79.84 143.58 79.13 143.58 79.07 145 79.84 145 79.84 143.58"/><polygon points="66.9 143.6 68.47 143.6 68.47 145.02 67.04 145.02 66.9 143.6"/><path d="M2.24,161.7l-.64-6.55L2.86,155l.64,6.55Z"/><path d="M6.19,161.75,5,161.27,7.25,155H8.43l2.24,6.24-1.18.48-1.65-4.6Z"/><path d="M15.74,157.92a2,2,0,0,1,0,2.8,1.78,1.78,0,0,1-1.36.59,1.76,1.76,0,0,1-1.35-.59,2,2,0,0,1,0-2.8,1.76,1.76,0,0,1,1.35-.59A1.78,1.78,0,0,1,15.74,157.92Zm-.85,1.87a.61.61,0,0,0,0-.94.72.72,0,0,0-.51-.19.75.75,0,0,0-.51.19.64.64,0,0,0-.21.47.62.62,0,0,0,.21.47.75.75,0,0,0,.51.19A.72.72,0,0,0,14.89,159.79Z"/><path d="M18.74,161.7l-.64-6.55,1.26-.14.64,6.55Z"/><path d="M24.65,158.9a.82.82,0,0,1-.83-.83.75.75,0,0,1,.24-.57.81.81,0,0,1,.59-.24.82.82,0,0,1,.81.81.81.81,0,0,1-.24.59A.75.75,0,0,1,24.65,158.9Zm0,2.76a.82.82,0,0,1-.83-.83.75.75,0,0,1,.24-.57.81.81,0,0,1,.59-.24.82.82,0,0,1,.81.81.81.81,0,0,1-.24.59A.75.75,0,0,1,24.65,161.66Z"/><path d="M30.2,161.63a2.22,2.22,0,0,1-.92-.18,1.61,1.61,0,0,1-.63-.51,1.28,1.28,0,0,1-.24-.7c0-.08,0-.18,0-.29v-.36h1.16v.21c0,.08,0,.14,0,.2h0a.19.19,0,0,0,.11.16.75.75,0,0,0,.29,0h1q.41,0,.51-.15a.42.42,0,0,0,0-.4l1.24-.33a2,2,0,0,1,0,1.16,1.56,1.56,0,0,1-.67.83,2.2,2.2,0,0,1-1.23.31Zm3.15,0a1.47,1.47,0,0,1-.85-.24,1.8,1.8,0,0,1-.57-.67,4.84,4.84,0,0,1-.39-1v0l-.74-2.93,1.23-.34.75,2.94v0a4.37,4.37,0,0,0,.14.52.72.72,0,0,0,.16.25.46.46,0,0,0,.27.08h.49v1.42Z"/><path d="M38.74,160.21h2.19l.16,0a.28.28,0,0,0,.22-.19.35.35,0,0,0,0-.18.36.36,0,0,0-.08-.19l-2.2-3.12.28-1.07L43,154.11l.45,1.32-3,1.12.1-.36,1.75,2.59a2.45,2.45,0,0,1,.36.82,1.77,1.77,0,0,1,0,.79,1.39,1.39,0,0,1-.29.64,1.46,1.46,0,0,1-.57.44,1.92,1.92,0,0,1-.83.16H38.74Zm0,0h0v1.42h0Z"/><rect x="33.84" y="160.21" width="4.9" height="1.42"/><rect class="cls-1" x="11.85" y="9.24" width="59.5" height="59.5" rx="9.37" transform="translate(-15.41 39.48) rotate(-43.64)"/><path class="cls-2" d="M26.62,65.21s8.23,2.43,15.62-6.65S60.91,51.92,65,56L48.67,72.17s-5,5.81-11.54,2.89a9.94,9.94,0,0,1-3.05-2.21Z"/><path class="cls-3" d="M13.08,50.84l9,9.28s11.28,2.64,20.36-8.44,25.77-6.33,27.7-3.37L58.76,34.81a18.43,18.43,0,0,0-18-4.57A22.74,22.74,0,0,0,32,34.92Z"/><path class="cls-4" d="M55,32S44.8,29.5,38.44,33.68s-23.9,18.67-23.9,18.67l2.37,2.45s18-6.92,27.5-15.91,17.78,0,17.78,0Z"/><path class="cls-5" d="M63.6,57.43,48.67,72.17s-5,5.8-11.54,2.89a10.23,10.23,0,0,1-3.05-2.21l-3.33-3.42c2.63.27,8.69,0,14.27-6.87A16.13,16.13,0,0,1,63.6,57.43Z"/></g></svg>