<svg width="184" height="70" viewBox="0 0 184 70" fill="none" xmlns="http://www.w3.org/2000/svg">
<g clip-path="url(#clip0_772_4197)">
<path d="M44.2937 63.7451L67.3202 41.0711C67.5785 40.8078 67.723 40.4546 67.723 40.0868C67.723 39.7189 67.5785 39.3656 67.3202 39.1023L52.4635 23.9283C49.4343 20.8404 45.2997 19.0687 40.9618 19.0001C36.6238 18.9315 32.4346 20.5714 29.3081 23.562L-0.0368423 51.6115C-0.0368423 51.6115 16.4225 39.377 25.1265 47.0967C32.145 53.3147 39.6147 60.9522 42.249 63.6811C42.3762 63.8233 42.5313 63.9382 42.7047 64.0189C42.878 64.0996 43.0662 64.1443 43.2575 64.1503C43.4488 64.1563 43.6394 64.1234 43.8176 64.0538C43.9957 63.9841 44.1577 63.8791 44.2937 63.7451Z" fill="url(#paint0_linear_772_4197)"/>
<path d="M73.4268 0V64.1484" stroke="white" strokeMiterlimit="10"/>
<path d="M161.996 9.48696L134.797 20.128C134.71 20.1606 134.631 20.2124 134.567 20.2795C134.503 20.3465 134.455 20.427 134.427 20.5151C134.399 20.6032 134.391 20.6964 134.404 20.788C134.417 20.8795 134.45 20.9669 134.502 21.0437L137.404 25.6225C137.51 25.789 137.657 25.9259 137.831 26.0204C138.005 26.115 138.2 26.1639 138.398 26.1627H174.568C175.468 26.1627 176.331 26.5175 176.968 27.1493C177.605 27.781 177.965 28.6382 177.967 29.5328V31.291C177.965 32.1857 177.605 33.0427 176.968 33.6744C176.331 34.3062 175.468 34.6609 174.568 34.6609H127.696C127.518 34.6609 127.342 34.6261 127.177 34.5584C127.013 34.4908 126.864 34.3917 126.738 34.2667C126.613 34.1417 126.513 33.9932 126.445 33.8299C126.377 33.6666 126.342 33.4916 126.342 33.3148V25.4851C126.342 25.4121 126.323 25.3402 126.287 25.2768C126.25 25.2135 126.197 25.161 126.133 25.1247C126.07 25.0884 125.997 25.0696 125.924 25.0702C125.85 25.0707 125.779 25.0906 125.715 25.1279L121.11 27.802C121.049 27.8401 120.999 27.8927 120.963 27.955C120.928 28.0174 120.909 28.0875 120.907 28.1591V33.4339C120.907 33.7593 120.777 34.0714 120.546 34.3016C120.314 34.5317 120 34.6609 119.673 34.6609H110.205C109.863 34.6609 109.535 34.5259 109.293 34.2855C109.051 34.045 108.915 33.7189 108.915 33.3789V9.78912C108.917 9.73735 108.904 9.68614 108.877 9.64178C108.85 9.59743 108.811 9.56189 108.764 9.5395C108.717 9.51711 108.664 9.50887 108.613 9.5158C108.561 9.52274 108.512 9.54453 108.473 9.57851L103.72 13.4613C103.688 13.4859 103.662 13.5179 103.644 13.5545C103.627 13.5911 103.618 13.6313 103.619 13.6719V33.672C103.622 35.3398 104.289 36.9385 105.475 38.1178C106.661 39.2971 108.269 39.9608 109.947 39.9632H118.549C119.983 39.9628 121.358 39.3963 122.372 38.3881L123.496 37.2708L124.601 38.5346C124.991 38.9827 125.473 39.3423 126.015 39.5888C126.557 39.8353 127.146 39.963 127.742 39.9632H174.78C177.223 39.9632 179.566 38.9984 181.293 37.281C183.02 35.5636 183.991 33.2344 183.991 30.8057V29.3222C183.991 26.8934 183.02 24.5642 181.293 22.8468C179.566 21.1295 177.223 20.1646 174.78 20.1646H151.017C150.97 20.166 150.925 20.1505 150.889 20.1212C150.852 20.0918 150.828 20.0505 150.82 20.0048C150.813 19.9591 150.822 19.9121 150.846 19.8724C150.87 19.8328 150.908 19.8032 150.952 19.7892L164.602 15.1372C164.731 15.0965 164.849 15.0282 164.948 14.9373C165.046 14.8464 165.124 14.735 165.175 14.611C165.226 14.487 165.249 14.3534 165.242 14.2196C165.236 14.0859 165.2 13.9552 165.137 13.8368L163.175 9.94484C163.074 9.73319 162.896 9.56786 162.677 9.48271C162.458 9.39756 162.214 9.39905 161.996 9.48696Z" fill="white"/>
<path d="M101.197 34.6611H84.7006C84.6055 34.6611 84.5113 34.6799 84.4235 34.7164C84.3357 34.7528 84.2561 34.8062 84.1893 34.8735C84.1225 34.9408 84.0698 35.0207 84.0342 35.1084C83.9986 35.1961 83.9809 35.29 83.9821 35.3846V39.2399C83.9821 39.4302 84.0575 39.6129 84.192 39.7483C84.3265 39.8837 84.5092 39.961 84.7006 39.9634H95.4954C96.1974 39.9647 96.8912 39.8128 97.5278 39.5185C98.1644 39.2242 98.7282 38.7947 99.1796 38.2601L101.538 35.4578C101.596 35.3892 101.633 35.3059 101.647 35.2173C101.66 35.1286 101.649 35.038 101.613 34.9555C101.578 34.8729 101.52 34.8017 101.447 34.7498C101.373 34.6978 101.287 34.6672 101.197 34.6611Z" fill="white"/>
<path d="M118.144 51.0074C120.174 51.0074 121.819 49.3715 121.819 47.3536C121.819 45.3356 120.174 43.6997 118.144 43.6997C116.115 43.6997 114.469 45.3356 114.469 47.3536C114.469 49.3715 116.115 51.0074 118.144 51.0074Z" fill="white"/>
<path d="M125.485 51.0074C127.515 51.0074 129.16 49.3715 129.16 47.3536C129.16 45.3356 127.515 43.6997 125.485 43.6997C123.455 43.6997 121.81 45.3356 121.81 47.3536C121.81 49.3715 123.455 51.0074 125.485 51.0074Z" fill="white"/>
<path d="M167.154 68.4707C167.724 68.4707 168.185 68.0115 168.185 67.4451C168.185 66.8786 167.724 66.4194 167.154 66.4194C166.584 66.4194 166.122 66.8786 166.122 67.4451C166.122 68.0115 166.584 68.4707 167.154 68.4707Z" fill="white"/>
<path d="M168.885 68.4707C169.455 68.4707 169.917 68.0115 169.917 67.4451C169.917 66.8786 169.455 66.4194 168.885 66.4194C168.316 66.4194 167.854 66.8786 167.854 67.4451C167.854 68.0115 168.316 68.4707 168.885 68.4707Z" fill="white"/>
<path d="M102.551 68.8735C103.12 68.8735 103.582 68.4143 103.582 67.8479C103.582 67.2815 103.12 66.8223 102.551 66.8223C101.981 66.8223 101.519 67.2815 101.519 67.8479C101.519 68.4143 101.981 68.8735 102.551 68.8735Z" fill="white"/>
<path d="M104.282 68.8735C104.852 68.8735 105.314 68.4143 105.314 67.8479C105.314 67.2815 104.852 66.8223 104.282 66.8223C103.713 66.8223 103.251 67.2815 103.251 67.8479C103.251 68.4143 103.713 68.8735 104.282 68.8735Z" fill="white"/>
<path d="M156.525 61.6851C157.095 61.6851 157.556 61.2259 157.556 60.6594C157.556 60.093 157.095 59.6338 156.525 59.6338C155.955 59.6338 155.493 60.093 155.493 60.6594C155.493 61.2259 155.955 61.6851 156.525 61.6851Z" fill="white"/>
<path d="M136.123 56.0254C136.693 56.0254 137.155 55.5662 137.155 54.9998C137.155 54.4333 136.693 53.9741 136.123 53.9741C135.554 53.9741 135.092 54.4333 135.092 54.9998C135.092 55.5662 135.554 56.0254 136.123 56.0254Z" fill="white"/>
<path d="M91.3322 68.8735C91.902 68.8735 92.3638 68.4143 92.3638 67.8479C92.3638 67.2815 91.902 66.8223 91.3322 66.8223C90.7625 66.8223 90.3006 67.2815 90.3006 67.8479C90.3006 68.4143 90.7625 68.8735 91.3322 68.8735Z" fill="white"/>
<path d="M128.911 56.0254C129.481 56.0254 129.943 55.5662 129.943 54.9998C129.943 54.4333 129.481 53.9741 128.911 53.9741C128.342 53.9741 127.88 54.4333 127.88 54.9998C127.88 55.5662 128.342 56.0254 128.911 56.0254Z" fill="white"/>
<path d="M130.8 56.0254C131.369 56.0254 131.831 55.5662 131.831 54.9998C131.831 54.4333 131.369 53.9741 130.8 53.9741C130.23 53.9741 129.768 54.4333 129.768 54.9998C129.768 55.5662 130.23 56.0254 130.8 56.0254Z" fill="white"/>
<path d="M97.4112 19.4415C99.4409 19.4415 101.086 17.8056 101.086 15.7876C101.086 13.7697 99.4409 12.1338 97.4112 12.1338C95.3816 12.1338 93.7362 13.7697 93.7362 15.7876C93.7362 17.8056 95.3816 19.4415 97.4112 19.4415Z" fill="white"/>
<path d="M86.5888 58.3149L88.7072 63.3699C88.8055 63.6076 88.9681 63.8137 89.1769 63.9652C89.3807 64.108 89.6133 64.2049 89.8585 64.2491V66.0806C89.4654 66.0438 89.0819 65.9383 88.7256 65.7692C88.3446 65.5844 87.9937 65.3437 87.6848 65.055C87.3483 65.3661 86.9624 65.6198 86.5427 65.8058C86.1461 65.9947 85.7115 66.0918 85.2717 66.0898H82.4532V64.2583H85.2164C85.3868 64.2596 85.5568 64.2411 85.723 64.2033C85.8692 64.1704 86.0072 64.1081 86.1282 64.0202C86.2375 63.9341 86.3257 63.8244 86.3862 63.6996C86.4535 63.5404 86.4849 63.3685 86.4782 63.196C86.4783 63.0284 86.4534 62.8618 86.4045 62.7014C86.4045 62.5183 86.2848 62.3168 86.2019 62.0878C85.9901 61.575 85.7782 61.0531 85.5572 60.5403C85.3361 60.0274 85.1335 59.5055 84.9124 58.9835L86.5888 58.3149Z" fill="white"/>
<path d="M95.3481 62.7749C95.3495 63.1955 95.2682 63.6125 95.1086 64.0021C94.9559 64.3783 94.7342 64.723 94.4547 65.0185C94.1744 65.3123 93.8438 65.5542 93.4783 65.7329C93.1027 65.9128 92.6966 66.0215 92.2809 66.0533V64.2218C92.4501 64.1928 92.6145 64.1404 92.7691 64.0661C92.9212 63.9863 93.0583 63.881 93.1744 63.7548C93.2896 63.6172 93.3828 63.4628 93.4507 63.2969C93.527 63.1078 93.5646 62.9054 93.5612 62.7017" fill="white"/>
<path d="M99.6863 62.8756V63.1777C99.6863 63.2968 99.6863 63.4158 99.6863 63.544C99.6863 63.6722 99.6863 63.8004 99.6863 63.9286C99.6863 64.0568 99.6863 64.1667 99.6863 64.2766H101.151V66.1081H99.5296C99.4615 66.4799 99.3692 66.8471 99.2533 67.207C99.1546 67.5051 99.0217 67.7908 98.8573 68.0586C98.5035 68.5612 98.0284 68.9674 97.4757 69.24C96.793 69.5562 96.0456 69.7098 95.2928 69.6887C95.0596 69.7021 94.8259 69.7021 94.5928 69.6887C94.3533 69.6887 94.1046 69.6338 93.8375 69.588V67.8664C94.0589 67.9409 94.2872 67.9931 94.5191 68.0221C94.7537 68.0582 94.9908 68.0765 95.2283 68.077C95.5382 68.0791 95.8473 68.0453 96.1494 67.9762C96.4217 67.9077 96.6824 67.7997 96.9231 67.6558C97.1561 67.5081 97.3566 67.3149 97.5125 67.088C97.6876 66.8324 97.804 66.5416 97.8534 66.2363C97.8534 65.7967 97.9086 65.3205 97.927 64.8627C97.9454 64.4048 97.927 63.8828 97.927 63.3608V62.9763C97.927 62.8206 97.927 62.6923 97.927 62.5733V59.3682H99.7691L99.6863 62.8756Z" fill="white"/>
<path d="M104.817 62.7381C104.813 62.9418 104.851 63.1442 104.927 63.3333C104.995 63.5014 105.091 63.6564 105.213 63.7912C105.327 63.9195 105.464 64.0252 105.618 64.1025C105.77 64.176 105.931 64.2284 106.097 64.2583V65.8699C105.714 65.9009 105.33 65.8574 104.964 65.7418C104.583 65.5613 104.235 65.32 103.932 65.0275C103.627 65.31 103.283 65.5475 102.91 65.7326C102.239 65.9653 101.53 66.0739 100.819 66.0531V64.2216C101.297 64.2339 101.774 64.1815 102.238 64.0659C102.392 63.9862 102.533 63.881 102.652 63.7546C102.774 63.6217 102.868 63.466 102.928 63.2967C103.002 63.1069 103.036 62.9046 103.03 62.7014V59.249H104.817V62.7381Z" fill="white"/>
<path d="M134.042 66.0626C133.937 66.6772 133.705 67.2635 133.36 67.7842C133.043 68.2618 132.644 68.6802 132.181 69.0204C131.722 69.3512 131.207 69.5992 130.661 69.7531C130.118 69.9163 129.553 69.9995 128.985 70.0002C128.379 70.0038 127.777 69.9143 127.198 69.7347C126.635 69.5639 126.11 69.2873 125.651 68.9197C125.197 68.5474 124.829 68.082 124.573 67.5552C124.286 66.9618 124.144 66.309 124.159 65.6504V65.0277H125.946V65.6138C125.937 66.0263 126.029 66.4346 126.213 66.8043C126.392 67.1305 126.637 67.4172 126.931 67.6468C127.234 67.8772 127.577 68.0482 127.944 68.1505C128.317 68.2676 128.705 68.3263 129.096 68.3244C129.43 68.3258 129.762 68.2764 130.081 68.1779C130.409 68.0886 130.72 67.9463 131.002 67.7567C131.29 67.5658 131.542 67.3273 131.748 67.0515C131.969 66.7549 132.132 66.4194 132.227 66.0626H130.754C130.31 66.064 129.871 65.9735 129.464 65.7969C129.067 65.635 128.707 65.3952 128.405 65.0918C128.106 64.7935 127.866 64.4426 127.696 64.057C127.518 63.6527 127.427 63.2161 127.429 62.7749V61.0259C127.427 60.5848 127.518 60.1481 127.696 59.7439C127.866 59.3582 128.106 59.0073 128.405 58.709C128.709 58.4086 129.069 58.1692 129.464 58.0039C129.871 57.8273 130.31 57.7369 130.754 57.7383C131.194 57.7371 131.63 57.8276 132.034 58.0039C132.429 58.1692 132.789 58.4086 133.093 58.709C133.398 59.0045 133.642 59.3559 133.811 59.7439C133.986 60.1488 134.074 60.5854 134.069 61.0259V64.2768H135.451V66.1083L134.042 66.0626ZM129.215 62.7384C129.213 62.9616 129.257 63.183 129.344 63.3885C129.426 63.5697 129.546 63.7319 129.694 63.8647C129.836 63.9906 129.998 64.0926 130.173 64.1669C130.351 64.2307 130.537 64.2677 130.726 64.2768H132.236V61.0716C132.241 60.8305 132.197 60.5909 132.108 60.3666C132.031 60.1791 131.915 60.0103 131.767 59.8721C131.626 59.7446 131.459 59.6478 131.279 59.5881C131.1 59.5296 130.914 59.5018 130.726 59.5057C130.536 59.5135 130.349 59.5538 130.173 59.6248C129.998 59.6991 129.836 59.8011 129.694 59.927C129.547 60.0649 129.429 60.2297 129.344 60.4123C129.257 60.6211 129.213 60.8454 129.215 61.0716V62.7384Z" fill="white"/>
<path d="M135.359 66.0624V64.2309H137.054C136.952 63.947 136.879 63.6814 136.814 63.425C136.761 63.1966 136.734 62.9633 136.731 62.729V60.9799C136.727 60.5394 136.815 60.1028 136.989 59.6978C137.159 59.3122 137.4 58.9613 137.698 58.663C138.001 58.3648 138.357 58.1257 138.748 57.958C139.155 57.7825 139.594 57.692 140.038 57.6924C140.479 57.6912 140.915 57.7817 141.318 57.958C141.709 58.1257 142.066 58.3648 142.368 58.663C142.667 58.9613 142.907 59.3122 143.077 59.6978C143.252 60.1028 143.34 60.5394 143.335 60.9799V62.729C143.34 63.1695 143.252 63.6061 143.077 64.0111C142.908 64.4023 142.667 64.7592 142.368 65.0641C142.068 65.3654 141.711 65.605 141.318 65.7693C140.915 65.9456 140.479 66.0361 140.038 66.0349L135.359 66.0624ZM138.527 62.7474C138.525 62.9706 138.568 63.192 138.656 63.3975C138.735 63.5783 138.851 63.7406 138.997 63.8737C139.131 64.0095 139.295 64.1129 139.476 64.1759C139.652 64.2459 139.839 64.2861 140.029 64.2949C140.216 64.3068 140.404 64.282 140.581 64.2217C140.765 64.167 140.935 64.0732 141.079 63.9469C141.225 63.8102 141.341 63.645 141.419 63.4616C141.513 63.2354 141.557 62.9919 141.548 62.7474V61.0715C141.558 60.8299 141.514 60.5892 141.419 60.3664C141.343 60.1789 141.227 60.0102 141.079 59.8719C140.933 59.7462 140.764 59.6497 140.581 59.588C140.403 59.5294 140.216 59.5016 140.029 59.5056C139.839 59.5176 139.652 59.561 139.476 59.6338C139.299 59.7037 139.136 59.8062 138.997 59.9359C138.851 60.0691 138.735 60.2314 138.656 60.4121C138.568 60.6209 138.525 60.8452 138.527 61.0715V62.7474Z" fill="white"/>
<path d="M146.623 55V62.7107C146.623 63.0037 146.623 63.3059 146.623 63.6264C146.609 63.9335 146.575 64.2394 146.522 64.5422C146.478 64.8319 146.407 65.117 146.31 65.3939C146.218 65.6564 146.081 65.9011 145.905 66.1172L145.316 65.7692C145.131 65.6777 144.938 65.5678 144.735 65.4488C144.735 65.2473 144.8 65.0275 144.818 64.7986C144.833 64.5394 144.833 64.2795 144.818 64.0202V63.8187C144.823 63.7455 144.823 63.6721 144.818 63.5989V55.0275L146.623 55Z" fill="white"/>
<path d="M161.066 59.2856V65.6501C161.071 66.2006 160.951 66.7452 160.716 67.2435C160.491 67.7076 160.178 68.1244 159.795 68.4707C159.401 68.8107 158.948 69.0775 158.459 69.2582C157.974 69.4422 157.459 69.5382 156.939 69.542C156.417 69.5391 155.899 69.443 155.41 69.2582C154.921 69.0775 154.469 68.8107 154.075 68.4707C153.691 68.1244 153.378 67.7076 153.154 67.2435C152.918 66.7452 152.798 66.2006 152.804 65.6501V62.3167H154.646V65.6135C154.643 65.9291 154.709 66.2415 154.839 66.5293C154.967 66.79 155.149 67.0209 155.373 67.2069C155.604 67.3851 155.862 67.5243 156.138 67.619C156.417 67.7103 156.71 67.7567 157.004 67.7563C157.295 67.7557 157.584 67.7093 157.86 67.619C158.137 67.5365 158.394 67.3995 158.616 67.2161C158.838 67.0281 159.019 66.7977 159.15 66.5384C159.285 66.252 159.354 65.9391 159.352 65.6227V59.2948L161.066 59.2856Z" fill="white"/>
<path d="M162.622 55H164.409V62.7382C164.407 62.941 164.442 63.1425 164.51 63.3334C164.578 63.5015 164.675 63.6564 164.796 63.7913C164.91 63.9196 165.047 64.0252 165.201 64.1026C165.356 64.1769 165.52 64.2293 165.689 64.2583V66.0898C165.27 66.0591 164.861 65.9503 164.483 65.7692C164.12 65.5903 163.793 65.3485 163.516 65.055C163.236 64.7595 163.014 64.4147 162.862 64.0385C162.702 63.6489 162.621 63.232 162.622 62.8114V55Z" fill="white"/>
<path d="M169.383 62.738C169.379 62.9418 169.417 63.1442 169.493 63.3333C169.554 63.5026 169.648 63.6583 169.77 63.7912C169.886 63.9174 170.023 64.0227 170.175 64.1025C170.33 64.1768 170.494 64.2292 170.663 64.2582V66.0897C170.267 66.0541 169.88 65.9486 169.521 65.7783C169.141 65.5956 168.793 65.3546 168.489 65.064C168.188 65.3506 167.843 65.5886 167.467 65.7691C166.796 66.0035 166.087 66.1122 165.376 66.0897V64.2582C165.857 64.2702 166.337 64.2178 166.804 64.1025C166.956 64.0227 167.093 63.9174 167.209 63.7912C167.33 63.6563 167.427 63.5013 167.495 63.3333C167.563 63.1424 167.598 62.9408 167.596 62.738V59.2856H169.383V62.738Z" fill="white"/>
<path d="M172.487 61.099C172.242 61.1124 171.996 61.0877 171.759 61.0258C171.544 60.9669 171.342 60.8707 171.16 60.7419C170.993 60.6172 170.855 60.4578 170.755 60.2748C170.628 60.0265 170.553 59.7552 170.535 59.4773C170.516 59.1993 170.555 58.9204 170.648 58.6576C170.741 58.3949 170.886 58.1536 171.076 57.9484C171.265 57.7431 171.495 57.5782 171.75 57.4635L180.132 53.3335L181.136 55.0459L172.514 59.3042L179.063 59.6797C179.55 59.6688 180.034 59.7625 180.482 59.9544C180.864 60.1266 181.206 60.3761 181.486 60.687C181.752 60.9819 181.956 61.3277 182.084 61.7035C182.22 62.0795 182.288 62.4762 182.287 62.8757C182.288 63.2721 182.219 63.6655 182.084 64.0386C181.956 64.4171 181.753 64.766 181.486 65.0642C181.205 65.3722 180.863 65.6186 180.482 65.7877C180.034 65.9796 179.55 66.0733 179.063 66.0625H170.608V64.231H179.026C179.259 64.2373 179.491 64.1968 179.708 64.1119C179.888 64.0432 180.051 63.9371 180.187 63.8006C180.312 63.6756 180.409 63.5258 180.472 63.3609C180.534 63.2033 180.565 63.0356 180.564 62.8665C180.566 62.6854 180.535 62.5054 180.472 62.3353C180.401 62.1673 180.301 62.0125 180.178 61.8774C180.045 61.7352 179.881 61.6255 179.699 61.5569C179.486 61.4696 179.257 61.426 179.026 61.4287L172.487 61.099Z" fill="white"/>
<path d="M106.097 64.2581C106.787 64.3448 107.483 64.3754 108.178 64.3497L108.667 64.2947C108.295 63.9037 107.984 63.4592 107.746 62.9761C107.547 62.5869 107.44 62.1579 107.432 61.7215C107.432 61.4129 107.469 61.1055 107.543 60.8057C107.617 60.486 107.735 60.1779 107.893 59.89C108.056 59.5993 108.257 59.3314 108.492 59.0933C108.738 58.8393 109.028 58.6315 109.348 58.4797L108.685 58.2233L109.477 56.7397L112.332 58.0218C112.848 58.2508 113.346 58.4705 113.824 58.6995C114.303 58.9284 114.746 59.1482 115.16 59.3771C115.532 59.585 115.892 59.8143 116.238 60.0639C116.512 60.2577 116.754 60.4925 116.956 60.7599C117.438 61.3769 117.709 62.1309 117.73 62.9119C117.729 63.4485 117.579 63.9745 117.297 64.4321C116.974 64.932 116.522 65.3368 115.989 65.6043C115.815 65.705 115.629 65.7849 115.436 65.8424C115.225 65.9065 115.003 65.9522 114.773 65.998L114.082 66.0805H113.438C112.963 66.0817 112.488 66.045 112.019 65.9706C111.539 65.8958 111.07 65.7667 110.619 65.5859C110.294 65.6843 109.961 65.7578 109.624 65.8057C109.256 65.8698 108.869 65.9156 108.464 65.9523C108.059 65.9889 105.701 65.9522 105.599 65.8698L106.097 64.2581ZM112.194 61.291C112.207 61.1173 112.207 60.9428 112.194 60.7691C112.171 60.5847 112.119 60.4053 112.038 60.238C111.957 60.0664 111.841 59.9135 111.697 59.7893C111.531 59.6509 111.33 59.5592 111.117 59.5237C110.836 59.4571 110.541 59.4861 110.278 59.6061C110.022 59.7213 109.795 59.8936 109.615 60.1098C109.43 60.3257 109.28 60.5699 109.173 60.8331C109.075 61.0814 109.022 61.345 109.017 61.6116C109.017 61.8405 109.061 62.0672 109.145 62.2801C109.229 62.4895 109.34 62.6867 109.477 62.8662C109.628 63.0534 109.795 63.2279 109.974 63.3881C110.164 63.5507 110.364 63.7006 110.573 63.8368C110.846 63.7241 111.096 63.5627 111.31 63.3606C111.515 63.1788 111.689 62.9655 111.826 62.7288C111.961 62.5062 112.063 62.2657 112.13 62.0145C112.205 61.7681 112.242 61.5119 112.24 61.2544L112.194 61.291ZM113.907 61.3552C113.903 61.6115 113.869 61.8665 113.806 62.1152C113.73 62.3932 113.635 62.6655 113.521 62.9302C113.398 63.2098 113.253 63.4793 113.088 63.7361C112.917 63.9922 112.726 64.2342 112.517 64.4596L112.949 64.5145H113.677C114.05 64.5209 114.422 64.4746 114.782 64.3771C115.061 64.3008 115.324 64.1735 115.556 64.0017C115.75 63.8623 115.905 63.6764 116.007 63.4613C116.11 63.2597 116.164 63.0371 116.164 62.8112C116.157 62.5949 116.104 62.3827 116.007 62.1885C115.893 61.9399 115.745 61.7087 115.565 61.5017C115.344 61.2511 115.097 61.024 114.828 60.8241C114.507 60.5874 114.161 60.3848 113.797 60.2196C113.851 60.4142 113.885 60.6136 113.898 60.8149C113.944 60.9797 113.953 61.1537 113.953 61.3185L113.907 61.3552Z" fill="white"/>
<path d="M92.3546 64.2583H89.7572V66.0532H92.3546V64.2583Z" fill="white"/>
<path opacity="0.8" d="M44.2937 44.7437L67.3202 22.0789C67.579 21.814 67.7238 21.4592 67.7238 21.0899C67.7238 20.7206 67.579 20.3658 67.3202 20.1008L52.4635 4.90856C49.4355 1.8184 45.3005 0.0453129 40.9618 -0.0233216C36.6231 -0.0919562 32.4334 1.54942 29.3081 4.54224L-0.0368423 32.6559C-0.0368423 32.6559 16.4225 20.4214 25.1265 28.132C32.145 34.3499 39.6147 41.9964 42.249 44.7162C42.3787 44.856 42.5358 44.9681 42.7106 45.0455C42.8853 45.123 43.0741 45.1643 43.2654 45.1668C43.4567 45.1694 43.6466 45.1333 43.8234 45.0605C44.0002 44.9878 44.1602 44.88 44.2937 44.7437Z" fill="url(#paint1_linear_772_4197)"/>
</g>
<defs>
<linearGradient id="paint0_linear_772_4197" x1="8.31305e-09" y1="41.5748" x2="67.7807" y2="41.5748" gradientUnits="userSpaceOnUse">
<stop stopColor="#5280F8"/>
<stop offset="1" stopColor="#1A0975"/>
</linearGradient>
<linearGradient id="paint1_linear_772_4197" x1="7.71706e-09" y1="22.5734" x2="67.7807" y2="22.5734" gradientUnits="userSpaceOnUse">
<stop stopColor="#2BCBFF"/>
<stop offset="1" stopColor="#3779FE"/>
</linearGradient>
<clipPath id="clip0_772_4197">
<rect width="184" height="70" fill="white"/>
</clipPath>
</defs>
</svg>
