<svg version="1.0" xmlns="http://www.w3.org/2000/svg" width="100.000000pt" height="100.000000pt" viewBox="0 0 100.000000 100.000000" preserveAspectRatio="xMidYMid meet">

<g transform="translate(0.000000,100.000000) scale(0.100000,-0.100000)" fill="#FF0000" stroke="none">
<path d="M530 794 c-126 -27 -238 -102 -282 -188 -29 -57 -22 -155 15 -213 58 -91 199 -161 344 -170 59 -4 87 -2 98 7 13 11 15 53 15 284 0 198 -3 275 -12 284 -16 16 -96 14 -178 -4z m150 -279 l0 -255 -54 0 c-77 0 -200 42 -261 88 -148 113 -122 278 59 367 56 28 158 53 219 54 l37 1 0 -255z"/>
<path d="M780 665 c0 -21 32 -26 140 -23 81 3 95 6 98 21 3 15 -8 17 -117 17 -100 0 -121 -3 -121 -15z"/>
<path d="M782 563 c3 -16 17 -18 118 -18 101 0 115 2 118 18 3 15 -8 17 -118 17 -110 0 -121 -2 -118 -17z"/>
<path d="M784 469 c-14 -23 17 -30 122 -27 94 3 109 5 112 21 3 15 -7 17 -112 17 -72 0 -117 -4 -122 -11z"/>
<path d="M784 369 c-14 -23 17 -30 122 -27 94 3 109 5 112 21 3 15 -7 17 -112 17 -72 0 -117 -4 -122 -11z"/>
</g>
</svg>