<svg width="32" height="32" viewBox="0 0 32 32" fill="none" xmlns="http://www.w3.org/2000/svg">
<path fillRule="evenodd" clipRule="evenodd" d="M14.4045 27.6665V27.6231C14.4045 26.7026 15.1507 25.9564 16.0712 25.9564H22.9332C23.8537 25.9564 24.5999 26.7026 24.5999 27.6231V27.6665C24.5999 27.8506 24.7491 27.9998 24.9332 27.9998H25C25.1841 27.9998 25.3333 27.8506 25.3333 27.6665V24.4785C25.3333 23.374 24.4379 22.4785 23.3333 22.4785H15.6711C14.5665 22.4785 13.6711 23.374 13.6711 24.4785V27.6665C13.6711 27.8506 13.8203 27.9998 14.0044 27.9998H14.0712C14.2553 27.9998 14.4045 27.8506 14.4045 27.6665ZM15.7378 27.6231V27.6665C15.7378 28.587 14.9916 29.3332 14.0712 29.3332H14.0044C13.0839 29.3332 12.3377 28.587 12.3377 27.6665V24.4785C12.3377 22.6376 13.8301 21.1452 15.6711 21.1452H23.3333C25.1743 21.1452 26.6667 22.6376 26.6667 24.4785V27.6665C26.6667 28.587 25.9205 29.3332 25 29.3332H24.9332C24.0127 29.3332 23.2666 28.587 23.2666 27.6665V27.6231C23.2666 27.439 23.1173 27.2898 22.9332 27.2898H16.0712C15.8871 27.2898 15.7378 27.439 15.7378 27.6231Z" fill="#003AAF"/>
<path fillRule="evenodd" clipRule="evenodd" d="M21.9401 18.4852H17.0642C16.744 18.4852 16.469 18.7129 16.4092 19.0275L15.9949 21.2099H23.0094L22.595 19.0275C22.5353 18.7129 22.2603 18.4852 21.9401 18.4852ZM23.905 18.7788C23.7258 17.8349 22.9008 17.1518 21.9401 17.1518H17.0642C16.1035 17.1518 15.2785 17.8349 15.0993 18.7788L14.3847 22.5433H24.6196L23.905 18.7788Z" fill="#003AAF"/>
<path fillRule="evenodd" clipRule="evenodd" d="M13.2185 19.9789C13.4789 19.7186 13.901 19.7186 14.1613 19.9789L14.885 20.7027C15.1454 20.963 15.1454 21.3851 14.885 21.6455C14.6247 21.9058 14.2026 21.9058 13.9422 21.6455L13.2185 20.9217C12.9582 20.6614 12.9582 20.2393 13.2185 19.9789Z" fill="#003AAF"/>
<path fillRule="evenodd" clipRule="evenodd" d="M25.8148 19.9789C25.5545 19.7186 25.1323 19.7186 24.872 19.9789L24.1483 20.7027C23.8879 20.963 23.8879 21.3851 24.1483 21.6455C24.4086 21.9058 24.8307 21.9058 25.0911 21.6455L25.8148 20.9217C26.0752 20.6614 26.0752 20.2393 25.8148 19.9789Z" fill="#003AAF"/>
<path fillRule="evenodd" clipRule="evenodd" d="M14.7417 24.2157C14.7417 23.8476 15.0402 23.5491 15.4084 23.5491H16.9436C17.3118 23.5491 17.6103 23.8476 17.6103 24.2157C17.6103 24.5839 17.3118 24.8824 16.9436 24.8824H15.4084C15.0402 24.8824 14.7417 24.5839 14.7417 24.2157Z" fill="#003AAF"/>
<path fillRule="evenodd" clipRule="evenodd" d="M21.3944 24.2157C21.3944 23.8476 21.6929 23.5491 22.0611 23.5491H23.5963C23.9645 23.5491 24.263 23.8476 24.263 24.2157C24.263 24.5839 23.9645 24.8824 23.5963 24.8824H22.0611C21.6929 24.8824 21.3944 24.5839 21.3944 24.2157Z" fill="#003AAF"/>
<path fillRule="evenodd" clipRule="evenodd" d="M9.98779 2.63965C10.356 2.63965 10.6545 2.93813 10.6545 3.30632V3.80843H17.3662V3.30632C17.3662 2.93813 17.6647 2.63965 18.0329 2.63965C18.4011 2.63965 18.6995 2.93813 18.6995 3.30632V3.85168C21.4659 4.14613 22.6667 5.92132 22.6667 8.47118V15.2301H21.3333V10.1505L21.312 10.1509H6.65413V16.3978C6.65413 17.5817 6.95895 18.3672 7.42721 18.8552C7.88545 19.3327 8.6943 19.7273 10.1391 19.7273H11.0368V21.0606H10.1391C6.76629 21.0606 5.3208 19.1955 5.3208 16.3978V8.47118C5.3208 5.91114 6.53118 4.13197 9.32113 3.84822V3.30632C9.32113 2.93813 9.6196 2.63965 9.98779 2.63965ZM9.32113 5.99642V5.18971C8.37447 5.30864 7.7906 5.63513 7.42721 6.01384C6.95895 6.50184 6.65413 7.28736 6.65413 8.47118V8.81755H21.312L21.3333 8.81788V8.47118C21.3333 7.28736 21.0285 6.50184 20.5603 6.01384C20.2011 5.63958 19.6267 5.31632 18.6995 5.19399V5.99642C18.6995 6.36461 18.4011 6.66309 18.0329 6.66309C17.6647 6.66309 17.3662 6.36461 17.3662 5.99642V5.14176H10.6545V5.99642C10.6545 6.36461 10.356 6.66309 9.98779 6.66309C9.6196 6.66309 9.32113 6.36461 9.32113 5.99642Z" fill="#003AAF"/>
<path d="M9.02327 13.1011C9.02327 12.7329 9.32175 12.4344 9.68994 12.4344C10.0581 12.4344 10.3566 12.7329 10.3566 13.1011C10.3566 13.4693 10.0581 13.7677 9.68994 13.7677C9.32175 13.7677 9.02327 13.4693 9.02327 13.1011Z" fill="#003AAF"/>
<path d="M13.6899 12.4344C13.3218 12.4344 13.0233 12.7329 13.0233 13.1011C13.0233 13.4693 13.3218 13.7677 13.6899 13.7677C14.0581 13.7677 14.3566 13.4693 14.3566 13.1011C14.3566 12.7329 14.0581 12.4344 13.6899 12.4344Z" fill="#003AAF"/>
<path d="M17.6899 12.4344C17.3218 12.4344 17.0233 12.7329 17.0233 13.1011C17.0233 13.4693 17.3218 13.7677 17.6899 13.7677C18.0581 13.7677 18.3566 13.4693 18.3566 13.1011C18.3566 12.7329 18.0581 12.4344 17.6899 12.4344Z" fill="#003AAF"/>
<path d="M9.68994 15.1011C9.32175 15.1011 9.02327 15.3996 9.02327 15.7677C9.02327 16.1359 9.32175 16.4344 9.68994 16.4344C10.0581 16.4344 10.3566 16.1359 10.3566 15.7677C10.3566 15.3996 10.0581 15.1011 9.68994 15.1011Z" fill="#003AAF"/>
<path d="M13.6899 15.1011C13.3218 15.1011 13.0233 15.3996 13.0233 15.7677C13.0233 16.1359 13.3218 16.4344 13.6899 16.4344C14.0581 16.4344 14.3566 16.1359 14.3566 15.7677C14.3566 15.3996 14.0581 15.1011 13.6899 15.1011Z" fill="#003AAF"/>
<path d="M17.6899 15.1011C17.3218 15.1011 17.0233 15.3996 17.0233 15.7677C17.0233 16.1359 17.3218 16.4344 17.6899 16.4344C18.0581 16.4344 18.3566 16.1359 18.3566 15.7677C18.3566 15.3996 18.0581 15.1011 17.6899 15.1011Z" fill="#003AAF"/>
</svg>
