<svg width="32" height="32" viewBox="0 0 32 32" fill="none" xmlns="http://www.w3.org/2000/svg">
<path fillRule="evenodd" clipRule="evenodd" d="M20.4172 19.7841C20.4587 18.6003 20.0832 17.6269 19.4161 16.933C18.7473 16.2374 17.6846 15.7192 16.1702 15.6468C13.9769 15.5419 12.0513 17.4601 12.0513 19.8308C12.0513 22.1427 13.9219 24.0134 16.2338 24.0134C18.5031 24.0134 20.3344 22.1634 20.4172 19.7841ZM21.7497 19.8308C21.8553 16.8222 19.8231 14.4865 16.2338 14.315C13.1988 14.1698 10.7179 16.7826 10.7179 19.8308C10.7179 22.8791 13.1856 25.3467 16.2338 25.3467C19.2821 25.3467 21.6441 22.8659 21.7497 19.8308Z" fill="#003AAF"/>
<path d="M14.5184 17.1785C14.0302 17.1785 13.6343 17.5744 13.6343 18.0626C13.6343 18.5509 14.0302 18.9467 14.5184 18.9467C15.0066 18.9467 15.4025 18.5509 15.4025 18.0626C15.4025 17.5744 15.0066 17.1785 14.5184 17.1785Z" fill="#003AAF"/>
<path d="M17.9624 20.6754C17.4742 20.6754 17.0783 21.0713 17.0783 21.5595C17.0783 22.0478 17.4742 22.4437 17.9624 22.4437C18.4507 22.4437 18.8465 22.0478 18.8465 21.5595C18.8465 21.0713 18.4507 20.6754 17.9624 20.6754Z" fill="#003AAF"/>
<path fillRule="evenodd" clipRule="evenodd" d="M18.5394 17.4592C18.7998 17.7196 18.7998 18.1417 18.5394 18.402L14.8973 22.0441C14.637 22.3044 14.2149 22.3044 13.9545 22.0441C13.6942 21.7837 13.6942 21.3616 13.9545 21.1013L17.5966 17.4592C17.857 17.1989 18.2791 17.1989 18.5394 17.4592Z" fill="#003AAF"/>
<path fillRule="evenodd" clipRule="evenodd" d="M20.8308 4.68987L18.8403 8.70326H13.16L12.1405 6.63183L11.1695 4.67369L10.7973 3.94545C10.7811 3.8969 10.765 3.84835 10.765 3.7998C10.765 3.65416 10.862 3.54088 11.0077 3.52469H11.0239C11.3799 3.47614 11.7036 3.34668 11.9949 3.1363L12.0596 3.07157C12.4156 2.81264 12.8526 2.66699 13.3219 2.66699C13.8074 2.66699 14.2443 2.82882 14.6003 3.08775C14.6084 3.09584 14.6206 3.10393 14.6327 3.11203C14.6448 3.12012 14.657 3.12821 14.6651 3.1363C15.0211 3.39523 15.458 3.55706 15.9435 3.55706H16.0406C16.5261 3.55706 16.9631 3.39523 17.3191 3.1363L17.3838 3.08775C17.7398 2.82882 18.1768 2.66699 18.6623 2.66699C19.1316 2.66699 19.5685 2.81264 19.9245 3.07157C19.9569 3.08775 19.9731 3.10393 19.9893 3.12012C20.2644 3.31431 20.6042 3.45996 20.9603 3.50851H20.9764C21.1383 3.54088 21.2354 3.65416 21.2354 3.7998C21.2354 3.84835 21.2192 3.8969 21.203 3.94545L20.8308 4.68987ZM19.494 4.38447L18.0133 7.36993H13.9899L13.3368 6.04304L12.5161 4.38795C12.6045 4.33518 12.691 4.27825 12.7755 4.21721L12.8621 4.15465L12.9098 4.10696C13.0248 4.04044 13.1636 4.00033 13.3219 4.00033C13.4922 4.00033 13.6501 4.05227 13.7922 4.14924C13.792 4.14906 13.7925 4.14942 13.7922 4.14924L13.7962 4.15308L13.8808 4.21461C14.4447 4.6247 15.1524 4.89039 15.9435 4.89039H16.0402C16.8313 4.89039 17.5394 4.6247 18.1033 4.21461L18.1112 4.20885L18.1743 4.16154C18.3209 4.05667 18.4849 4.00033 18.6623 4.00033C18.8408 4.00033 18.9947 4.05139 19.1174 4.13386L19.1272 4.14361L19.2204 4.20941C19.3074 4.27083 19.3987 4.32941 19.494 4.38447ZM19.0465 4.06293L19.0502 4.06663C19.0442 4.06086 19.0426 4.05902 19.0465 4.06293Z" fill="#003AAF"/>
<path fillRule="evenodd" clipRule="evenodd" d="M19.1322 11.6403H12.8681C9.29448 11.6403 6.66683 14.2012 6.66683 17.0369V27.7261C6.66683 27.7551 6.6769 27.8112 6.75356 27.8797C6.83273 27.9504 6.96901 28.0158 7.15067 28.0158H24.8497C25.0313 28.0158 25.1676 27.9504 25.2468 27.8797C25.3234 27.8112 25.3335 27.7551 25.3335 27.7261V17.0369C25.3335 14.1896 22.7076 11.6403 19.1322 11.6403ZM12.8681 10.307H19.1322C23.2984 10.307 26.6668 13.3156 26.6668 17.0369V27.7261C26.6668 28.6234 25.8543 29.3492 24.8497 29.3492H7.15067C6.14605 29.3492 5.3335 28.6234 5.3335 27.7261V17.0369C5.3335 13.3288 8.70192 10.307 12.8681 10.307Z" fill="#003AAF"/>
<path fillRule="evenodd" clipRule="evenodd" d="M18.0002 8.7003H14.0002C13.632 8.7003 13.3335 8.99878 13.3335 9.36697V9.67508C13.3335 10.0433 13.632 10.3417 14.0002 10.3417H18.0002C18.3684 10.3417 18.6668 10.0433 18.6668 9.67508V9.36697C18.6668 8.99878 18.3684 8.7003 18.0002 8.7003ZM14.0002 7.36697C12.8956 7.36697 12.0002 8.2624 12.0002 9.36697V9.67508C12.0002 10.7796 12.8956 11.6751 14.0002 11.6751H18.0002C19.1047 11.6751 20.0002 10.7796 20.0002 9.67508V9.36697C20.0002 8.2624 19.1047 7.36697 18.0002 7.36697H14.0002Z" fill="#003AAF"/>
</svg>
