<svg width="32" height="32" viewBox="0 0 32 32" fill="none" xmlns="http://www.w3.org/2000/svg">
<path fillRule="evenodd" clipRule="evenodd" d="M16.6667 5.33333H6C5.63181 5.33333 5.33333 5.63181 5.33333 6V26C5.33333 26.3682 5.63181 26.6667 6 26.6667H16.6667C17.0349 26.6667 17.3333 26.3682 17.3333 26V6C17.3333 5.63181 17.0349 5.33333 16.6667 5.33333ZM6 4C4.89543 4 4 4.89543 4 6V26C4 27.1046 4.89543 28 6 28H16.6667C17.7712 28 18.6667 27.1046 18.6667 26V6C18.6667 4.89543 17.7712 4 16.6667 4H6Z" fill="#003AAF"/>
<path fillRule="evenodd" clipRule="evenodd" d="M26 12.7394H24V18.1408H26C26.3682 18.1408 26.6667 17.8423 26.6667 17.4741V13.4061C26.6667 13.0379 26.3682 12.7394 26 12.7394ZM22.6667 11.4061V19.4741H26C27.1046 19.4741 28 18.5787 28 17.4741V13.4061C28 12.3015 27.1046 11.4061 26 11.4061H22.6667Z" fill="#003AAF"/>
<path fillRule="evenodd" clipRule="evenodd" d="M12.5613 11.9359C13.6625 11.9359 14.5552 11.0432 14.5552 9.94198C14.5552 8.84078 13.6625 7.94808 12.5613 7.94808C11.4601 7.94808 10.5674 8.84078 10.5674 9.94198C10.5674 11.0432 11.4601 11.9359 12.5613 11.9359ZM12.5613 13.2692C14.3989 13.2692 15.8885 11.7796 15.8885 9.94198C15.8885 8.1044 14.3989 6.61475 12.5613 6.61475C10.7237 6.61475 9.23405 8.1044 9.23405 9.94198C9.23405 11.7796 10.7237 13.2692 12.5613 13.2692Z" fill="#003AAF"/>
<path fillRule="evenodd" clipRule="evenodd" d="M11.3333 24C13.1743 24 14.6667 22.5076 14.6667 20.6667C14.6667 18.8257 13.1743 17.3333 11.3333 17.3333C9.49238 17.3333 8 18.8257 8 20.6667C8 22.5076 9.49238 24 11.3333 24ZM11.3333 25.3333C13.9107 25.3333 16 23.244 16 20.6667C16 18.0893 13.9107 16 11.3333 16C8.756 16 6.66667 18.0893 6.66667 20.6667C6.66667 23.244 8.756 25.3333 11.3333 25.3333Z" fill="#003AAF"/>
<path fillRule="evenodd" clipRule="evenodd" d="M20.7096 8.00602C21.0778 8.00602 21.3762 8.3045 21.3762 8.67269V21.2353C21.3762 21.6035 21.0778 21.9019 20.7096 21.9019C20.3414 21.9019 20.0429 21.6035 20.0429 21.2353V8.67269C20.0429 8.3045 20.3414 8.00602 20.7096 8.00602ZM23.3368 9.40097C23.705 9.40097 24.0035 9.69945 24.0035 10.0676V21.3301C24.0035 22.8028 22.8096 23.9967 21.3368 23.9967H18.3102C17.942 23.9967 17.6436 23.6983 17.6436 23.3301C17.6436 22.9619 17.942 22.6634 18.3102 22.6634H21.3368C22.0732 22.6634 22.6701 22.0665 22.6701 21.3301V10.0676C22.6701 9.69945 22.9686 9.40097 23.3368 9.40097Z" fill="#003AAF"/>
</svg>
