<svg width="32" height="32" viewBox="0 0 32 32" fill="none" xmlns="http://www.w3.org/2000/svg">
<path fillRule="evenodd" clipRule="evenodd" d="M15.7379 26.333V26.2896C15.7379 25.3692 16.4841 24.623 17.4045 24.623H24.2666C25.187 24.623 25.9332 25.3692 25.9332 26.2896V26.333C25.9332 26.5171 26.0825 26.6664 26.2666 26.6664H26.3334C26.5174 26.6664 26.6667 26.5171 26.6667 26.333V23.1451C26.6667 22.0405 25.7713 21.1451 24.6667 21.1451H17.0044C15.8998 21.1451 15.0044 22.0405 15.0044 23.1451V26.333C15.0044 26.5171 15.1537 26.6664 15.3377 26.6664H15.4045C15.5886 26.6664 15.7379 26.5171 15.7379 26.333ZM17.0712 26.2896V26.333C17.0712 27.2535 16.325 27.9997 15.4045 27.9997H15.3377C14.4173 27.9997 13.6711 27.2535 13.6711 26.333V23.1451C13.6711 21.3041 15.1635 19.8117 17.0044 19.8117H24.6667C26.5076 19.8117 28 21.3041 28 23.1451V26.333C28 27.2535 27.2538 27.9997 26.3334 27.9997H26.2666C25.3461 27.9997 24.5999 27.2535 24.5999 26.333V26.2896C24.5999 26.1055 24.4507 25.9563 24.2666 25.9563H17.4045C17.2204 25.9563 17.0712 26.1055 17.0712 26.2896Z" fill="#003AAF"/>
<path fillRule="evenodd" clipRule="evenodd" d="M23.2734 17.1517H18.3976C18.0773 17.1517 17.8023 17.3794 17.7426 17.694L17.3283 19.8765H24.3427L23.9284 17.694C23.8687 17.3794 23.5937 17.1517 23.2734 17.1517ZM25.2383 17.4453C25.0592 16.5015 24.2342 15.8184 23.2734 15.8184H18.3976C17.4368 15.8184 16.6118 16.5015 16.4326 17.4453L15.718 21.2098H25.953L25.2383 17.4453Z" fill="#003AAF"/>
<path fillRule="evenodd" clipRule="evenodd" d="M14.5519 18.6455C14.8122 18.3851 15.2343 18.3851 15.4947 18.6455L16.2184 19.3692C16.4787 19.6295 16.4787 20.0516 16.2184 20.312C15.958 20.5723 15.5359 20.5723 15.2756 20.312L14.5519 19.5883C14.2915 19.3279 14.2915 18.9058 14.5519 18.6455Z" fill="#003AAF"/>
<path fillRule="evenodd" clipRule="evenodd" d="M27.1482 18.6455C26.8878 18.3851 26.4657 18.3851 26.2053 18.6455L25.4816 19.3692C25.2213 19.6295 25.2213 20.0516 25.4816 20.312C25.742 20.5723 26.1641 20.5723 26.4244 20.312L27.1482 19.5883C27.4085 19.3279 27.4085 18.9058 27.1482 18.6455Z" fill="#003AAF"/>
<path fillRule="evenodd" clipRule="evenodd" d="M16.0751 22.8823C16.0751 22.5141 16.3736 22.2156 16.7418 22.2156H18.277C18.6452 22.2156 18.9437 22.5141 18.9437 22.8823C18.9437 23.2505 18.6452 23.5489 18.277 23.5489H16.7418C16.3736 23.5489 16.0751 23.2505 16.0751 22.8823Z" fill="#003AAF"/>
<path fillRule="evenodd" clipRule="evenodd" d="M22.7278 22.8823C22.7278 22.5141 23.0262 22.2156 23.3944 22.2156H24.9297C25.2979 22.2156 25.5963 22.5141 25.5963 22.8823C25.5963 23.2505 25.2979 23.5489 24.9297 23.5489H23.3944C23.0262 23.5489 22.7278 23.2505 22.7278 22.8823Z" fill="#003AAF"/>
<path fillRule="evenodd" clipRule="evenodd" d="M16.3104 11.1263V9.01248C16.3104 8.42437 16.0715 7.88303 15.6757 7.48011C15.2922 7.09831 14.7558 6.85932 14.1625 6.85191C13.923 6.85447 13.7362 7.05113 13.7362 7.27425V12.0465H15.3901C15.7947 12.0465 15.9952 11.9243 16.0917 11.8278C16.1881 11.7314 16.3104 11.5309 16.3104 11.1263ZM14.1673 5.51855C13.1977 5.51855 12.4028 6.30469 12.4028 7.27425V13.3799H15.3901C16.7702 13.3799 17.6437 12.5064 17.6437 11.1263V9.01248C17.6437 8.05165 17.2507 7.17817 16.6217 6.54053C15.9928 5.91162 15.1194 5.52729 14.1673 5.51855Z" fill="#003AAF"/>
<path fillRule="evenodd" clipRule="evenodd" d="M3.97103 18.4177L4.4911 18.0553C5.32094 17.4766 6.46075 17.552 7.20644 18.2462L7.20937 18.2489L8.17258 19.151L9.15243 18.2388C9.88938 17.5528 11.0311 17.4737 11.8562 18.0582L12.372 18.4177V6.99047C12.372 6.9439 12.3732 6.8977 12.3754 6.85189H5.79989C4.8581 6.85189 4.47371 7.10753 4.30695 7.28731C4.12239 7.48627 3.97103 7.844 3.97103 8.46239V18.4177ZM5.79989 5.51855C3.42824 5.51855 2.6377 6.83592 2.6377 8.46239V19.5018C2.6377 20.1126 3.38081 20.4585 3.90257 20.0905L5.25441 19.1485C5.57063 18.9277 6.01333 18.9572 6.29793 19.2221L7.61024 20.4512C7.91855 20.7382 8.4245 20.7382 8.73282 20.4512L10.0609 19.2147C10.3376 18.9572 10.7803 18.9277 11.0886 19.1485L12.4405 20.0905C12.9622 20.4512 13.7054 20.1053 13.7054 19.5018V6.99047C13.7054 6.94375 13.7077 6.89753 13.7124 6.85189C13.788 6.10668 14.467 5.51855 15.2865 5.51855H5.79989Z" fill="#003AAF"/>
<path fillRule="evenodd" clipRule="evenodd" d="M7.36612 13.8801C7.36612 13.512 7.66459 13.2135 8.03278 13.2135H10.1596C10.5278 13.2135 10.8262 13.512 10.8262 13.8801C10.8262 14.2483 10.5278 14.5468 10.1596 14.5468H8.03278C7.66459 14.5468 7.36612 14.2483 7.36612 13.8801Z" fill="#003AAF"/>
<path fillRule="evenodd" clipRule="evenodd" d="M7.36612 11.0446C7.36612 10.6764 7.66459 10.3779 8.03278 10.3779H10.1596C10.5278 10.3779 10.8262 10.6764 10.8262 11.0446C10.8262 11.4128 10.5278 11.7113 10.1596 11.7113H8.03278C7.66459 11.7113 7.36612 11.4128 7.36612 11.0446Z" fill="#003AAF"/>
<path fillRule="evenodd" clipRule="evenodd" d="M5.23612 13.8732C5.23612 13.505 5.5346 13.2065 5.90279 13.2065H5.90915C6.27734 13.2065 6.57582 13.505 6.57582 13.8732C6.57582 14.2414 6.27734 14.5398 5.90915 14.5398H5.90279C5.5346 14.5398 5.23612 14.2414 5.23612 13.8732Z" fill="#003AAF"/>
<path fillRule="evenodd" clipRule="evenodd" d="M5.23612 11.0375C5.23612 10.6693 5.5346 10.3708 5.90279 10.3708H5.90915C6.27734 10.3708 6.57582 10.6693 6.57582 11.0375C6.57582 11.4057 6.27734 11.7042 5.90915 11.7042H5.90279C5.5346 11.7042 5.23612 11.4057 5.23612 11.0375Z" fill="#003AAF"/>
</svg>
